{"title":"Mental 2012 DVDRip XViD-CM8","uid":8109326,"size":1584138915,"categoryP":"video","categoryS":"movies","magnet":"?xt=urn:btih:25267d81211161c0ec6baea3047f03dd04f61295&amp;dn=Mental+2012+DVDRip+XViD-CM8&amp;tr=udp%3A%2F%2Ftracker.openbittorrent.com%3A80&amp;tr=udp%3A%2F%2Fopen.demonii.com%3A1337&amp;tr=udp%3A%2F%2Ftracker.coppersurfer.tk%3A6969&amp;tr=udp%3A%2F%2Fexodus.desync.com%3A6969","seeders":0,"leechers":1,"uploader":"HeroMaster","files":-1,"time":1360111337,"description":"Mental.2012.DVDRip.XViD-CM8\n\nSource: Retail DVD\n\nVideo.: 720x304 @bitrate 1430\nAudio.: English 6CH @448\nSample: Yes, included\n &lt;a href=&quot;\nhttp://www.imdb.com/title/tt1655416/&quot; rel=&quot;nofollow&quot; target=&quot;_NEW&quot;&gt;\nhttp://www.imdb.com/title/tt1655416/&lt;/a&gt;\n\nGeneral\nComplete name                            : Mental.2012.DVDRip.XViD-CM8.avi\nFormat                                   : AVI\nFormat/Info                              : Audio Video Interleave\nFile size                                : 1.46 GiB\nDuration                                 : 1h 50mn\nOverall bit rate                         : 1 881 Kbps\nWriting application                      : VirtualDubMod 1.5.4.1 (build 2178/release)\nWriting library                          : VirtualDubMod build 2178/release\n\nVideo\nID                                       : 0\nFormat                                   : MPEG-4 Visual\nFormat profile                           : Advanced Simple@L5\nFormat settings, BVOP                    : No\nFormat settings, QPel                    : No\nFormat settings, GMC                     : No warppoints\nFormat settings, Matrix                  : Custom\nCodec ID                                 : XVID\nCodec ID/Hint                            : XviD\nDuration                                 : 1h 50mn\nBit rate                                 : 1 427 Kbps\nWidth                                    : 720 pixels\nHeight                                   : 304 pixels\nDisplay aspect ratio                     : 2.35:1\nFrame rate                               : 25.000 fps\nColor space                              : YUV\nChroma subsampling                       : 4:2:0\nBit depth                                : 8 bits\nScan type                                : Progressive\nCompression mode                         : Lossy\nBits/(Pixel*Frame)                       : 0.261\nStream size                              : 1.11 GiB (76%)\nWriting library                          : XviD 1.2.1 (UTC 2008-12-04)\n\nAudio\nID                                       : 1\nFormat                                   : AC-3\nFormat/Info                              : Audio Coding 3\nMode extension                           : CM (complete main)\nFormat settings, Endianness              : Big\nCodec ID                                 : 2000\nDuration                                 : 1h 50mn\nBit rate mode                            : Constant\nBit rate                                 : 448 Kbps\nChannel(s)                               : 6 channels\nChannel positions                        : Front: L C R, Side: L R, LFE\nSampling rate                            : 48.0 KHz\nBit depth                                : 16 bits\nCompression mode                         : Lossy\nStream size                              : 356 MiB (24%)\nAlignment                                : Split accross interleaves\nInterleave, duration                     : 96 ms (2.40 video frames)\nInterleave, preload duration             : 96 ms\n\n\nPLOT\nA charismatic, crazy hothead transforms a family's life when she becomes the nanny of five girls whose mother has cracked from her husband's political ambitions and his infidelity. \n\n\nCAST\nLiev Schreiber\t      ... Trevor Blundell\nAnthony LaPaglia  ... Barry Moochmore\nToni Collette\t      ... Shaz\nCaroline Goodall    ... Doris\nKerry Fox\t              ... Nancy\nRebecca Gibney    ... Shirley Moochmore\n\n\nPoster:\n\n &lt;a href=&quot;\nhttp://i.imgur.com/b0YJpqe.jpg&quot; rel=&quot;nofollow&quot; target=&quot;_NEW&quot;&gt;\nhttp://i.imgur.com/b0YJpqe.jpg&lt;/a&gt;\n\n\nScreenshots:\n\n &lt;a href=&quot;\nhttp://i.imgur.com/5PKwSAM.png&quot; rel=&quot;nofollow&quot; target=&quot;_NEW&quot;&gt;\nhttp://i.imgur.com/5PKwSAM.png&lt;/a&gt;\n\n &lt;a href=&quot;\nhttp://i.imgur.com/IHp8gJD.png&quot; rel=&quot;nofollow&quot; target=&quot;_NEW&quot;&gt;\nhttp://i.imgur.com/IHp8gJD.png&lt;/a&gt;\n\n &lt;a href=&quot;\nhttp://i.imgur.com/Pb5oWzr.png&quot; rel=&quot;nofollow&quot; target=&quot;_NEW&quot;&gt;\nhttp://i.imgur.com/Pb5oWzr.png&lt;/a&gt;\n\n\nSEED AND ENJOY!","torrent":{"xt":"urn:btih:25267d81211161c0ec6baea3047f03dd04f61295","amp;dn":"Mental+2012+DVDRip+XViD-CM8","amp;tr":["udp%3A%2F%2Ftracker.openbittorrent.com%3A80","udp%3A%2F%2Fopen.demonii.com%3A1337","udp%3A%2F%2Ftracker.coppersurfer.tk%3A6969","udp%3A%2F%2Fexodus.desync.com%3A6969"],"infoHash":"25267d81211161c0ec6baea3047f03dd04f61295","infoHashBuffer":{"type":"Buffer","data":[37,38,125,129,33,17,97,192,236,107,174,163,4,127,3,221,4,246,18,149]},"announce":[],"urlList":[]}}